<svg width="1157" height="1030" viewBox="0 0 471 471" fill="none" xmlns="http://www.w3.org/2000/svg">
<path d="M14.2082 202.306L150.279 66.0001L190.064 106.021C184.414 126.031 193.596 147.925 211.958 158.519V288.94C197.833 296.944 188.417 312.246 188.417 329.667C188.417 342.154 193.377 354.13 202.207 362.96C211.037 371.79 223.013 376.75 235.5 376.75C247.987 376.75 259.963 371.79 268.793 362.96C277.623 354.13 282.583 342.154 282.583 329.667C282.583 312.246 273.167 296.944 259.042 288.94V174.527L307.773 223.729C306.125 227.261 306.125 231.263 306.125 235.5C306.125 247.987 311.085 259.963 319.915 268.793C328.745 277.623 340.721 282.583 353.208 282.583C365.695 282.583 377.671 277.623 386.501 268.793C395.331 259.963 400.292 247.987 400.292 235.5C400.292 223.013 395.331 211.037 386.501 202.207C377.671 193.377 365.695 188.417 353.208 188.417C348.971 188.417 344.969 188.417 341.437 190.065L280.935 129.563C283.858 118.659 282.725 107.065 277.746 96.9337C272.767 86.8024 264.28 78.8222 253.862 74.4751C243.739 70.7084 233.146 69.7668 223.729 72.3564L183.708 32.571L202.306 14.2084C220.669 -4.38947 250.331 -4.38947 268.694 14.2084L456.792 202.306C475.389 220.669 475.389 250.331 456.792 268.694L268.694 456.792C250.331 475.39 220.669 475.39 202.306 456.792L14.2082 268.694C-4.38971 250.331 -4.38971 220.669 14.2082 202.306Z" fill="#0075ff"/>
</svg>
