<svg width="1157" height="1030" viewBox="0 0 2048 1998" fill="none" xmlns="http://www.w3.org/2000/svg">
<path d="M1024 0C1118 0 1208.67 12 1296 36C1383.33 60 1464.67 94.6667 1540 140C1615.33 185.333 1684.33 238.667 1747 300C1809.67 361.333 1863.33 430.333 1908 507C1952.67 583.667 1987 665.333 2011 752C2035 838.667 2047.33 929.333 2048 1024C2048 1134 2031.33 1240 1998 1342C1964.67 1444 1917 1537.67 1855 1623C1793 1708.33 1719.33 1783 1634 1847C1548.67 1911 1453.33 1960.67 1348 1996C1346 1996.67 1343 1997 1339 1997C1335 1997 1332 1997.33 1330 1998C1314 1998 1301.33 1993.33 1292 1984C1282.67 1974.67 1278 1962.33 1278 1947V1807C1278 1761 1278.33 1714 1279 1666C1279 1632 1274 1597.67 1264 1563C1254 1528.33 1236 1499.33 1210 1476C1287.33 1467.33 1355 1451.67 1413 1429C1471 1406.33 1519.67 1374.33 1559 1333C1598.33 1291.67 1627.67 1241.67 1647 1183C1666.33 1124.33 1676.33 1053.67 1677 971C1677 919 1668.33 870 1651 824C1633.67 778 1607.33 735.333 1572 696C1579.33 677.333 1584.67 658 1588 638C1591.33 618 1593 598 1593 578C1593 552 1590.33 526.333 1585 501C1579.67 475.667 1572 450.333 1562 425C1558.67 423.667 1555 423 1551 423C1547 423 1543.33 423 1540 423C1518.67 423 1496.33 426.333 1473 433C1449.67 439.667 1426.67 448.333 1404 459C1381.33 469.667 1359 481.333 1337 494C1315 506.667 1296 518.667 1280 530C1196.67 506.667 1111.33 495 1024 495C936.667 495 851.333 506.667 768 530C751.333 518.667 732.333 506.667 711 494C689.667 481.333 667.667 470 645 460C622.333 450 599 441.333 575 434C551 426.667 528.667 423 508 423H497C493 423 489.333 423.667 486 425C476.667 449.667 469.333 474.667 464 500C458.667 525.333 455.667 551.333 455 578C455 598 456.667 618 460 638C463.333 658 468.667 677.333 476 696C440.667 734.667 414.333 777 397 823C379.667 869 371 918.333 371 971C371 1052.33 380.667 1122.67 400 1182C419.333 1241.33 448.667 1291.33 488 1332C527.333 1372.67 576 1405 634 1429C692 1453 759.667 1469 837 1477C817.667 1494.33 803 1515 793 1539C783 1563 776 1588 772 1614C754 1622.67 735 1629.33 715 1634C695 1638.67 675 1641 655 1641C612.333 1641 577 1631 549 1611C521 1591 496 1563.67 474 1529C466 1516.33 456.333 1503.67 445 1491C433.667 1478.33 421.333 1467 408 1457C394.667 1447 380.333 1439 365 1433C349.667 1427 333.667 1423.67 317 1423H305C299.667 1423 294.667 1424 290 1426C285.333 1428 280.667 1430 276 1432C271.333 1434 269.333 1437.33 270 1442C270 1450 274.667 1457.67 284 1465C293.333 1472.33 301 1478.33 307 1483L310 1485C324.667 1496.33 337.333 1507 348 1517C358.667 1527 368.667 1538 378 1550C387.333 1562 395 1574.67 401 1588C407 1601.33 414.667 1617 424 1635C446.667 1687 478.333 1724.67 519 1748C559.667 1771.33 608.667 1783.33 666 1784C683.333 1784 700.667 1783 718 1781C735.333 1779 752.667 1776 770 1772V1946C770 1962 765.333 1974.67 756 1984C746.667 1993.33 733.667 1998 717 1998H709C705.667 1998 702.667 1997.33 700 1996C595.333 1962 500 1913 414 1849C328 1785 254.333 1710 193 1624C131.667 1538 84.3333 1444 51 1342C17.6667 1240 0.666667 1134 0 1024C0 930 12 839.333 36 752C60 664.667 94.6667 583.333 140 508C185.333 432.667 238.667 363.667 300 301C361.333 238.333 430.333 184.667 507 140C583.667 95.3333 665.333 61 752 37C838.667 13 929.333 0.666667 1024 0Z" fill="#0075ff"/>
</svg>
