<svg width="1298" height="1040" viewBox="0 0 1298 1040" fill="none" xmlns="http://www.w3.org/2000/svg">
<g filter="url(#filter0_i_530_386)">
<ellipse cx="875" cy="273.5" rx="129" ry="135.5" fill="url(#paint0_linear_530_386)"/>
</g>
<g filter="url(#filter1_d_530_386)">
<path d="M697.545 265.158C712.292 265.158 724.246 253.204 724.246 238.457C724.246 223.711 712.292 211.757 697.545 211.757C682.799 211.757 670.845 223.711 670.845 238.457C670.845 253.204 682.799 265.158 697.545 265.158Z" fill="#1D72D7"/>
<path d="M904.672 661.428C944.359 631.199 963.315 580.402 951.448 531.945C951.153 530.741 950.842 529.54 950.514 528.342C942.647 499.578 923.183 472.241 894.814 463.05C870.995 455.333 844.995 461.267 820.145 458.199C771.364 452.175 733.544 412.705 706.934 371.379C680.323 330.054 659.872 283.796 624.512 249.655C566.227 193.38 471.15 181.264 398.886 217.895C326.621 254.526 280.589 335.795 282.552 416.79C284.515 497.785 332.598 575.222 402.427 616.307C428.079 631.4 457.748 642.092 487.275 638.351C512.895 635.104 536.174 621.338 561.674 617.251C601.765 610.826 641.601 628.952 676.277 650.075C710.952 671.198 744.447 696.235 783.851 706.027C822.112 715.536 869.515 688.206 904.672 661.428Z" fill="#006CEA"/>
<path d="M904.672 661.428C944.359 631.199 963.315 580.402 951.448 531.945C951.153 530.741 950.842 529.54 950.514 528.342C942.647 499.578 923.183 472.241 894.814 463.05C870.995 455.333 844.995 461.267 820.145 458.199C771.364 452.175 733.544 412.705 706.934 371.379C680.323 330.054 659.872 283.796 624.512 249.655C566.227 193.38 471.15 181.264 398.886 217.895C326.621 254.526 280.589 335.795 282.552 416.79C284.515 497.785 332.598 575.222 402.427 616.307C428.079 631.4 457.748 642.092 487.275 638.351C512.895 635.104 536.174 621.338 561.674 617.251C601.765 610.826 641.601 628.952 676.277 650.075C710.952 671.198 744.447 696.235 783.851 706.027C822.112 715.536 869.515 688.206 904.672 661.428Z" fill="#0066DE"/>
<path d="M239.224 598.566C220.224 610.357 232.224 627.257 239.224 628.516C246.224 629.776 997.924 628.516 997.924 628.516C1007.96 619.533 1017.36 609.86 1026.04 599.566C1026.04 599.566 258.224 586.776 239.224 598.566Z" fill="#3F3D56"/>
<path d="M734.654 505.867V591.571C734.655 592.663 735.089 593.71 735.862 594.483C736.634 595.255 737.681 595.689 738.773 595.69H865.778C866.87 595.689 867.917 595.255 868.69 594.483C869.462 593.71 869.896 592.663 869.897 591.571V505.867C869.894 504.776 869.459 503.73 868.687 502.959C867.915 502.188 866.869 501.754 865.778 501.753H738.773C737.682 501.754 736.636 502.188 735.864 502.959C735.092 503.73 734.657 504.776 734.654 505.867V505.867Z" fill="#3F3D56"/>
<path d="M737.634 506.933V590.514C737.635 591.097 737.867 591.657 738.279 592.069C738.692 592.482 739.251 592.714 739.835 592.715H864.72C865.304 592.714 865.863 592.482 866.276 592.069C866.689 591.657 866.921 591.097 866.922 590.514V506.933C866.922 506.349 866.69 505.789 866.277 505.375C865.865 504.962 865.305 504.729 864.72 504.727H739.835C739.251 504.729 738.691 504.962 738.278 505.375C737.865 505.789 737.634 506.349 737.634 506.933V506.933Z" fill="#0075FF"/>
<path d="M731.998 608.286C732.231 608.577 732.526 608.813 732.863 608.974C733.2 609.135 733.568 609.217 733.941 609.215H869.933C870.305 609.215 870.672 609.132 871.008 608.971C871.344 608.811 871.639 608.578 871.874 608.289C872.108 608.001 872.275 607.663 872.362 607.302C872.45 606.94 872.456 606.564 872.379 606.2L870.268 596.173C870.181 595.764 869.993 595.383 869.72 595.066C869.448 594.748 869.101 594.504 868.71 594.355C868.427 594.244 868.126 594.187 867.822 594.187H736.044C735.74 594.187 735.439 594.244 735.156 594.355C734.765 594.504 734.418 594.748 734.146 595.066C733.874 595.383 733.685 595.764 733.598 596.173L731.487 606.2C731.412 606.564 731.419 606.94 731.507 607.3C731.596 607.661 731.763 607.998 731.998 608.286V608.286Z" fill="#2F2E41"/>
<path d="M863.156 598.506H866.368C866.638 598.506 866.856 598.288 866.856 598.018V596.481C866.856 596.212 866.638 595.993 866.368 595.993H863.156C862.887 595.993 862.668 596.212 862.668 596.481V598.018C862.668 598.288 862.887 598.506 863.156 598.506Z" fill="#3F3D56"/>
<path d="M854.779 598.506H857.991C858.261 598.506 858.479 598.288 858.479 598.018V596.481C858.479 596.212 858.261 595.993 857.991 595.993H854.779C854.51 595.993 854.291 596.212 854.291 596.481V598.018C854.291 598.288 854.51 598.506 854.779 598.506Z" fill="#3F3D56"/>
<path d="M846.402 598.506H849.614C849.884 598.506 850.103 598.288 850.103 598.018V596.481C850.103 596.212 849.884 595.993 849.614 595.993H846.402C846.133 595.993 845.914 596.212 845.914 596.481V598.018C845.914 598.288 846.133 598.506 846.402 598.506Z" fill="#3F3D56"/>
<path d="M838.025 598.506H841.237C841.507 598.506 841.726 598.288 841.726 598.018V596.481C841.726 596.212 841.507 595.993 841.237 595.993H838.025C837.756 595.993 837.537 596.212 837.537 596.481V598.018C837.537 598.288 837.756 598.506 838.025 598.506Z" fill="#3F3D56"/>
<path d="M829.648 598.506H832.86C833.13 598.506 833.349 598.288 833.349 598.018V596.481C833.349 596.212 833.13 595.993 832.86 595.993H829.648C829.379 595.993 829.16 596.212 829.16 596.481V598.018C829.16 598.288 829.379 598.506 829.648 598.506Z" fill="#3F3D56"/>
<path d="M821.271 598.506H824.483C824.753 598.506 824.972 598.288 824.972 598.018V596.481C824.972 596.212 824.753 595.993 824.483 595.993H821.271C821.002 595.993 820.783 596.212 820.783 596.481V598.018C820.783 598.288 821.002 598.506 821.271 598.506Z" fill="#3F3D56"/>
<path d="M812.894 598.506H816.107C816.376 598.506 816.595 598.288 816.595 598.018V596.481C816.595 596.212 816.376 595.993 816.107 595.993H812.894C812.625 595.993 812.406 596.212 812.406 596.481V598.018C812.406 598.288 812.625 598.506 812.894 598.506Z" fill="#3F3D56"/>
<path d="M804.517 598.506H807.73C807.999 598.506 808.218 598.288 808.218 598.018V596.481C808.218 596.212 807.999 595.993 807.73 595.993H804.517C804.248 595.993 804.029 596.212 804.029 596.481V598.018C804.029 598.288 804.248 598.506 804.517 598.506Z" fill="#3F3D56"/>
<path d="M796.14 598.506H799.352C799.622 598.506 799.841 598.288 799.841 598.018V596.481C799.841 596.212 799.622 595.993 799.352 595.993H796.14C795.871 595.993 795.652 596.212 795.652 596.481V598.018C795.652 598.288 795.871 598.506 796.14 598.506Z" fill="#3F3D56"/>
<path d="M787.763 598.506H790.975C791.245 598.506 791.464 598.288 791.464 598.018V596.481C791.464 596.212 791.245 595.993 790.975 595.993H787.763C787.494 595.993 787.275 596.212 787.275 596.481V598.018C787.275 598.288 787.494 598.506 787.763 598.506Z" fill="#3F3D56"/>
<path d="M779.386 598.506H782.599C782.868 598.506 783.087 598.288 783.087 598.018V596.481C783.087 596.212 782.868 595.993 782.599 595.993H779.386C779.117 595.993 778.898 596.212 778.898 596.481V598.018C778.898 598.288 779.117 598.506 779.386 598.506Z" fill="#3F3D56"/>
<path d="M771.009 598.506H774.221C774.491 598.506 774.71 598.288 774.71 598.018V596.481C774.71 596.212 774.491 595.993 774.221 595.993H771.009C770.74 595.993 770.521 596.212 770.521 596.481V598.018C770.521 598.288 770.74 598.506 771.009 598.506Z" fill="#3F3D56"/>
<path d="M762.632 598.506H765.845C766.114 598.506 766.333 598.288 766.333 598.018V596.481C766.333 596.212 766.114 595.993 765.845 595.993H762.632C762.363 595.993 762.144 596.212 762.144 596.481V598.018C762.144 598.288 762.363 598.506 762.632 598.506Z" fill="#3F3D56"/>
<path d="M754.255 598.506H757.468C757.737 598.506 757.956 598.288 757.956 598.018V596.481C757.956 596.212 757.737 595.993 757.468 595.993H754.255C753.986 595.993 753.767 596.212 753.767 596.481V598.018C753.767 598.288 753.986 598.506 754.255 598.506Z" fill="#3F3D56"/>
<path d="M745.878 598.506H749.09C749.36 598.506 749.579 598.288 749.579 598.018V596.481C749.579 596.212 749.36 595.993 749.09 595.993H745.878C745.609 595.993 745.39 596.212 745.39 596.481V598.018C745.39 598.288 745.609 598.506 745.878 598.506Z" fill="#3F3D56"/>
<path d="M737.501 598.506H740.714C740.983 598.506 741.202 598.288 741.202 598.018V596.481C741.202 596.212 740.983 595.993 740.714 595.993H737.501C737.232 595.993 737.013 596.212 737.013 596.481V598.018C737.013 598.288 737.232 598.506 737.501 598.506Z" fill="#3F3D56"/>
<path d="M863.255 602.695H866.467C866.737 602.695 866.956 602.476 866.956 602.206V600.67C866.956 600.4 866.737 600.182 866.467 600.182H863.255C862.986 600.182 862.767 600.4 862.767 600.67V602.206C862.767 602.476 862.986 602.695 863.255 602.695Z" fill="#3F3D56"/>
<path d="M854.878 602.695H858.09C858.36 602.695 858.579 602.476 858.579 602.206V600.67C858.579 600.4 858.36 600.182 858.09 600.182H854.878C854.609 600.182 854.39 600.4 854.39 600.67V602.206C854.39 602.476 854.609 602.695 854.878 602.695Z" fill="#3F3D56"/>
<path d="M846.501 602.695H849.713C849.983 602.695 850.202 602.476 850.202 602.206V600.67C850.202 600.4 849.983 600.182 849.713 600.182H846.501C846.232 600.182 846.013 600.4 846.013 600.67V602.206C846.013 602.476 846.232 602.695 846.501 602.695Z" fill="#3F3D56"/>
<path d="M838.124 602.695H841.336C841.606 602.695 841.824 602.476 841.824 602.206V600.67C841.824 600.4 841.606 600.182 841.336 600.182H838.124C837.855 600.182 837.636 600.4 837.636 600.67V602.206C837.636 602.476 837.855 602.695 838.124 602.695Z" fill="#3F3D56"/>
<path d="M829.747 602.695H832.959C833.229 602.695 833.448 602.476 833.448 602.206V600.67C833.448 600.4 833.229 600.182 832.959 600.182H829.747C829.478 600.182 829.259 600.4 829.259 600.67V602.206C829.259 602.476 829.478 602.695 829.747 602.695Z" fill="#3F3D56"/>
<path d="M821.37 602.695H824.582C824.852 602.695 825.071 602.476 825.071 602.206V600.67C825.071 600.4 824.852 600.182 824.582 600.182H821.37C821.101 600.182 820.882 600.4 820.882 600.67V602.206C820.882 602.476 821.101 602.695 821.37 602.695Z" fill="#3F3D56"/>
<path d="M812.993 602.695H816.205C816.475 602.695 816.694 602.476 816.694 602.206V600.67C816.694 600.4 816.475 600.182 816.205 600.182H812.993C812.724 600.182 812.505 600.4 812.505 600.67V602.206C812.505 602.476 812.724 602.695 812.993 602.695Z" fill="#3F3D56"/>
<path d="M804.616 602.695H807.828C808.098 602.695 808.317 602.476 808.317 602.206V600.67C808.317 600.4 808.098 600.182 807.828 600.182H804.616C804.347 600.182 804.128 600.4 804.128 600.67V602.206C804.128 602.476 804.347 602.695 804.616 602.695Z" fill="#3F3D56"/>
<path d="M796.239 602.695H799.451C799.721 602.695 799.939 602.476 799.939 602.206V600.67C799.939 600.4 799.721 600.182 799.451 600.182H796.239C795.97 600.182 795.751 600.4 795.751 600.67V602.206C795.751 602.476 795.97 602.695 796.239 602.695Z" fill="#3F3D56"/>
<path d="M787.862 602.695H791.075C791.344 602.695 791.563 602.476 791.563 602.206V600.67C791.563 600.4 791.344 600.182 791.075 600.182H787.862C787.593 600.182 787.374 600.4 787.374 600.67V602.206C787.374 602.476 787.593 602.695 787.862 602.695Z" fill="#3F3D56"/>
<path d="M779.485 602.695H782.697C782.967 602.695 783.186 602.476 783.186 602.206V600.67C783.186 600.4 782.967 600.182 782.697 600.182H779.485C779.216 600.182 778.997 600.4 778.997 600.67V602.206C778.997 602.476 779.216 602.695 779.485 602.695Z" fill="#3F3D56"/>
<path d="M771.108 602.695H774.32C774.59 602.695 774.809 602.476 774.809 602.206V600.67C774.809 600.4 774.59 600.182 774.32 600.182H771.108C770.839 600.182 770.62 600.4 770.62 600.67V602.206C770.62 602.476 770.839 602.695 771.108 602.695Z" fill="#3F3D56"/>
<path d="M762.731 602.695H765.943C766.213 602.695 766.432 602.476 766.432 602.206V600.67C766.432 600.4 766.213 600.182 765.943 600.182H762.731C762.462 600.182 762.243 600.4 762.243 600.67V602.206C762.243 602.476 762.462 602.695 762.731 602.695Z" fill="#3F3D56"/>
<path d="M754.354 602.695H757.566C757.836 602.695 758.055 602.476 758.055 602.206V600.67C758.055 600.4 757.836 600.182 757.566 600.182H754.354C754.085 600.182 753.866 600.4 753.866 600.67V602.206C753.866 602.476 754.085 602.695 754.354 602.695Z" fill="#3F3D56"/>
<path d="M745.977 602.695H749.19C749.459 602.695 749.678 602.476 749.678 602.206V600.67C749.678 600.4 749.459 600.182 749.19 600.182H745.977C745.708 600.182 745.489 600.4 745.489 600.67V602.206C745.489 602.476 745.708 602.695 745.977 602.695Z" fill="#3F3D56"/>
<path d="M737.6 602.695H740.813C741.082 602.695 741.301 602.476 741.301 602.206V600.67C741.301 600.4 741.082 600.182 740.813 600.182H737.6C737.331 600.182 737.112 600.4 737.112 600.67V602.206C737.112 602.476 737.331 602.695 737.6 602.695Z" fill="#3F3D56"/>
<path d="M793.726 607.721H826.258C826.528 607.721 826.746 607.502 826.746 607.233V605.696C826.746 605.426 826.528 605.208 826.258 605.208H793.726C793.457 605.208 793.238 605.426 793.238 605.696V607.233C793.238 607.502 793.457 607.721 793.726 607.721Z" fill="#3F3D56"/>
<path d="M759.26 523.013H756.416C755.554 523.013 754.855 523.712 754.855 524.574C754.855 525.436 755.554 526.135 756.416 526.135H759.26C760.122 526.135 760.821 525.436 760.821 524.574C760.821 523.712 760.122 523.013 759.26 523.013Z" fill="white"/>
<path d="M791.783 523.013H788.94C788.077 523.013 787.378 523.712 787.378 524.574C787.378 525.436 788.077 526.135 788.94 526.135H791.783C792.645 526.135 793.344 525.436 793.344 524.574C793.344 523.712 792.645 523.013 791.783 523.013Z" fill="white"/>
<path d="M800.998 523.013H798.154C797.292 523.013 796.593 523.712 796.593 524.574C796.593 525.436 797.292 526.135 798.154 526.135H800.998C801.86 526.135 802.559 525.436 802.559 524.574C802.559 523.712 801.86 523.013 800.998 523.013Z" fill="white"/>
<path d="M782.937 522.753H765.263C764.401 522.753 763.702 523.451 763.702 524.314C763.702 525.176 764.401 525.875 765.263 525.875H782.937C783.799 525.875 784.498 525.176 784.498 524.314C784.498 523.451 783.799 522.753 782.937 522.753Z" fill="white"/>
<path d="M826.301 522.753H808.627C807.765 522.753 807.066 523.451 807.066 524.314C807.066 525.176 807.765 525.875 808.627 525.875H826.301C827.163 525.875 827.862 525.176 827.862 524.314C827.862 523.451 827.163 522.753 826.301 522.753Z" fill="white"/>
<path d="M767.933 530.059H765.089C764.227 530.059 763.528 530.758 763.528 531.621C763.528 532.483 764.227 533.182 765.089 533.182H767.933C768.795 533.182 769.494 532.483 769.494 531.621C769.494 530.758 768.795 530.059 767.933 530.059Z" fill="white"/>
<path d="M800.456 530.059H797.612C796.75 530.059 796.051 530.758 796.051 531.621C796.051 532.483 796.75 533.182 797.612 533.182H800.456C801.318 533.182 802.017 532.483 802.017 531.621C802.017 530.758 801.318 530.059 800.456 530.059Z" fill="white"/>
<path d="M809.671 530.059H806.827C805.965 530.059 805.266 530.758 805.266 531.621C805.266 532.483 805.965 533.182 806.827 533.182H809.671C810.533 533.182 811.232 532.483 811.232 531.621C811.232 530.758 810.533 530.059 809.671 530.059Z" fill="white"/>
<path d="M791.61 529.799H773.936C773.073 529.799 772.375 530.498 772.375 531.36C772.375 532.222 773.073 532.921 773.936 532.921H791.61C792.472 532.921 793.171 532.222 793.171 531.36C793.171 530.498 792.472 529.799 791.61 529.799Z" fill="white"/>
<path d="M834.974 529.799H817.3C816.437 529.799 815.739 530.498 815.739 531.36C815.739 532.222 816.437 532.921 817.3 532.921H834.974C835.836 532.921 836.535 532.222 836.535 531.36C836.535 530.498 835.836 529.799 834.974 529.799Z" fill="white"/>
<path d="M776.606 537.106H773.762C772.9 537.106 772.201 537.805 772.201 538.667C772.201 539.529 772.9 540.228 773.762 540.228H776.606C777.468 540.228 778.167 539.529 778.167 538.667C778.167 537.805 777.468 537.106 776.606 537.106Z" fill="white"/>
<path d="M809.129 537.106H806.285C805.423 537.106 804.724 537.805 804.724 538.667C804.724 539.529 805.423 540.228 806.285 540.228H809.129C809.991 540.228 810.69 539.529 810.69 538.667C810.69 537.805 809.991 537.106 809.129 537.106Z" fill="white"/>
<path d="M818.344 537.106H815.5C814.638 537.106 813.939 537.805 813.939 538.667C813.939 539.529 814.638 540.228 815.5 540.228H818.344C819.206 540.228 819.905 539.529 819.905 538.667C819.905 537.805 819.206 537.106 818.344 537.106Z" fill="white"/>
<path d="M800.282 536.846H782.608C781.746 536.846 781.047 537.545 781.047 538.407C781.047 539.269 781.746 539.968 782.608 539.968H800.282C801.145 539.968 801.843 539.269 801.843 538.407C801.843 537.545 801.145 536.846 800.282 536.846Z" fill="white"/>
<path d="M843.646 536.846H825.972C825.11 536.846 824.411 537.545 824.411 538.407C824.411 539.269 825.11 539.968 825.972 539.968H843.646C844.508 539.968 845.207 539.269 845.207 538.407C845.207 537.545 844.508 536.846 843.646 536.846Z" fill="white"/>
<path d="M785.279 544.153H782.435C781.573 544.153 780.874 544.852 780.874 545.714C780.874 546.576 781.573 547.275 782.435 547.275H785.279C786.141 547.275 786.84 546.576 786.84 545.714C786.84 544.852 786.141 544.153 785.279 544.153Z" fill="white"/>
<path d="M817.802 544.153H814.958C814.096 544.153 813.397 544.852 813.397 545.714C813.397 546.576 814.096 547.275 814.958 547.275H817.802C818.664 547.275 819.363 546.576 819.363 545.714C819.363 544.852 818.664 544.153 817.802 544.153Z" fill="white"/>
<path d="M827.016 544.153H824.173C823.311 544.153 822.612 544.852 822.612 545.714C822.612 546.576 823.311 547.275 824.173 547.275H827.016C827.879 547.275 828.577 546.576 828.577 545.714C828.577 544.852 827.879 544.153 827.016 544.153Z" fill="white"/>
<path d="M808.955 543.893H791.281C790.419 543.893 789.72 544.591 789.72 545.454C789.72 546.316 790.419 547.015 791.281 547.015H808.955C809.817 547.015 810.516 546.316 810.516 545.454C810.516 544.591 809.817 543.893 808.955 543.893Z" fill="white"/>
<path d="M791.783 572.173H788.94C788.077 572.173 787.378 572.872 787.378 573.734C787.378 574.597 788.077 575.295 788.94 575.295H791.783C792.645 575.295 793.344 574.597 793.344 573.734C793.344 572.872 792.645 572.173 791.783 572.173Z" fill="white"/>
<path d="M800.998 572.173H798.154C797.292 572.173 796.593 572.872 796.593 573.734C796.593 574.597 797.292 575.295 798.154 575.295H800.998C801.86 575.295 802.559 574.597 802.559 573.734C802.559 572.872 801.86 572.173 800.998 572.173Z" fill="white"/>
<path d="M826.301 572.434H808.627C807.765 572.434 807.066 573.132 807.066 573.995C807.066 574.857 807.765 575.556 808.627 575.556H826.301C827.163 575.556 827.862 574.857 827.862 573.995C827.862 573.132 827.163 572.434 826.301 572.434Z" fill="white"/>
<path d="M759.26 572.173H756.416C755.554 572.173 754.855 572.872 754.855 573.734C754.855 574.597 755.554 575.295 756.416 575.295H759.26C760.122 575.295 760.821 574.597 760.821 573.734C760.821 572.872 760.122 572.173 759.26 572.173Z" fill="white"/>
<path d="M782.937 572.434H765.263C764.401 572.434 763.702 573.132 763.702 573.995C763.702 574.857 764.401 575.556 765.263 575.556H782.937C783.799 575.556 784.498 574.857 784.498 573.995C784.498 573.132 783.799 572.434 782.937 572.434Z" fill="white"/>
<path d="M767.933 565.127H765.089C764.227 565.127 763.528 565.825 763.528 566.688C763.528 567.55 764.227 568.249 765.089 568.249H767.933C768.795 568.249 769.494 567.55 769.494 566.688C769.494 565.825 768.795 565.127 767.933 565.127Z" fill="white"/>
<path d="M800.456 565.127H797.612C796.75 565.127 796.051 565.825 796.051 566.688C796.051 567.55 796.75 568.249 797.612 568.249H800.456C801.318 568.249 802.017 567.55 802.017 566.688C802.017 565.825 801.318 565.127 800.456 565.127Z" fill="white"/>
<path d="M809.671 565.127H806.827C805.965 565.127 805.266 565.825 805.266 566.688C805.266 567.55 805.965 568.249 806.827 568.249H809.671C810.533 568.249 811.232 567.55 811.232 566.688C811.232 565.825 810.533 565.127 809.671 565.127Z" fill="white"/>
<path d="M791.61 565.387H773.936C773.073 565.387 772.375 566.086 772.375 566.948C772.375 567.81 773.073 568.509 773.936 568.509H791.61C792.472 568.509 793.171 567.81 793.171 566.948C793.171 566.086 792.472 565.387 791.61 565.387Z" fill="white"/>
<path d="M776.606 558.08H773.762C772.9 558.08 772.201 558.779 772.201 559.641C772.201 560.503 772.9 561.202 773.762 561.202H776.606C777.468 561.202 778.167 560.503 778.167 559.641C778.167 558.779 777.468 558.08 776.606 558.08Z" fill="white"/>
<path d="M809.129 558.08H806.285C805.423 558.08 804.724 558.779 804.724 559.641C804.724 560.503 805.423 561.202 806.285 561.202H809.129C809.991 561.202 810.69 560.503 810.69 559.641C810.69 558.779 809.991 558.08 809.129 558.08Z" fill="white"/>
<path d="M818.344 558.08H815.5C814.638 558.08 813.939 558.779 813.939 559.641C813.939 560.503 814.638 561.202 815.5 561.202H818.344C819.206 561.202 819.905 560.503 819.905 559.641C819.905 558.779 819.206 558.08 818.344 558.08Z" fill="white"/>
<path d="M800.282 558.34H782.608C781.746 558.34 781.047 559.039 781.047 559.901C781.047 560.763 781.746 561.462 782.608 561.462H800.282C801.145 561.462 801.843 560.763 801.843 559.901C801.843 559.039 801.145 558.34 800.282 558.34Z" fill="white"/>
<path d="M785.279 551.033H782.435C781.573 551.033 780.874 551.732 780.874 552.594C780.874 553.457 781.573 554.155 782.435 554.155H785.279C786.141 554.155 786.84 553.457 786.84 552.594C786.84 551.732 786.141 551.033 785.279 551.033Z" fill="white"/>
<path d="M817.802 551.033H814.958C814.096 551.033 813.397 551.732 813.397 552.594C813.397 553.457 814.096 554.155 814.958 554.155H817.802C818.664 554.155 819.363 553.457 819.363 552.594C819.363 551.732 818.664 551.033 817.802 551.033Z" fill="white"/>
<path d="M827.016 551.033H824.173C823.311 551.033 822.612 551.732 822.612 552.594C822.612 553.457 823.311 554.155 824.173 554.155H827.016C827.879 554.155 828.577 553.457 828.577 552.594C828.577 551.732 827.879 551.033 827.016 551.033Z" fill="white"/>
<path d="M808.955 551.294H791.281C790.419 551.294 789.72 551.993 789.72 552.855C789.72 553.717 790.419 554.416 791.281 554.416H808.955C809.817 554.416 810.516 553.717 810.516 552.855C810.516 551.993 809.817 551.294 808.955 551.294Z" fill="white"/>
<path d="M744.142 654.757L730.792 633.656L772.694 600.253L789.989 581.092C792.236 578.602 795.097 576.746 798.286 575.709C801.475 574.672 804.881 574.49 808.162 575.181C811.444 575.872 814.487 577.412 816.986 579.648C819.486 581.883 821.355 584.736 822.407 587.92C823.966 592.638 823.631 597.778 821.472 602.254C819.314 606.73 815.5 610.193 810.837 611.911L783.488 621.986L744.142 654.757Z" fill="#FFB6B6"/>
<path d="M430.914 501.757V604.317H502.764V501.757C502.765 501.019 502.53 500.3 502.093 499.706C501.655 499.112 501.039 498.674 500.334 498.457C500.002 498.347 499.654 498.293 499.304 498.297H434.384C433.929 498.296 433.478 498.385 433.058 498.558C432.637 498.731 432.254 498.986 431.932 499.307C431.61 499.629 431.354 500.01 431.179 500.431C431.005 500.851 430.915 501.301 430.914 501.757V501.757ZM458.954 536.997C458.973 534.975 459.789 533.042 461.226 531.619C462.662 530.196 464.602 529.397 466.624 529.397C468.646 529.397 470.586 530.196 472.023 531.619C473.459 533.042 474.275 534.975 474.294 536.997V548.897C474.284 550.924 473.471 552.865 472.034 554.295C470.597 555.725 468.652 556.527 466.624 556.527C464.597 556.527 462.652 555.725 461.214 554.295C459.777 552.865 458.965 550.924 458.954 548.897V536.997Z" fill="#2F2E41"/>
<path d="M430.694 601.037V610.927C430.696 611.439 430.899 611.93 431.261 612.293C431.622 612.656 432.112 612.862 432.624 612.867H501.054C501.567 612.864 502.058 612.658 502.42 612.295C502.781 611.931 502.984 611.439 502.984 610.927V601.037H430.694Z" fill="#3F3D56"/>
<path d="M317.884 347.237V534.497C317.886 536.883 318.835 539.171 320.522 540.858C322.21 542.546 324.498 543.495 326.884 543.497H604.384C606.771 543.495 609.059 542.546 610.746 540.858C612.433 539.171 613.382 536.883 613.384 534.497V347.237C613.378 344.852 612.428 342.567 610.741 340.882C609.054 339.197 606.768 338.25 604.384 338.247H326.884C324.5 338.25 322.214 339.197 320.527 340.882C318.84 342.567 317.89 344.852 317.884 347.237Z" fill="#3F3D56"/>
<path d="M324.394 349.567V532.187C324.396 533.462 324.904 534.684 325.805 535.585C326.707 536.487 327.929 536.994 329.204 536.997H602.074C603.349 536.994 604.571 536.487 605.473 535.585C606.374 534.684 606.882 533.462 606.884 532.187V349.567C606.884 348.29 606.378 347.066 605.476 346.162C604.574 345.258 603.351 344.749 602.074 344.747H329.204C327.928 344.749 326.704 345.258 325.803 346.162C324.901 347.066 324.394 348.29 324.394 349.567Z" fill="#070707"/>
<path d="M375.034 612.197C375.312 612.545 375.665 612.826 376.067 613.018C376.469 613.21 376.909 613.309 377.354 613.307H539.694C540.138 613.306 540.576 613.206 540.977 613.015C541.378 612.824 541.731 612.546 542.01 612.201C542.29 611.856 542.489 611.453 542.594 611.022C542.698 610.59 542.705 610.141 542.614 609.707L540.094 597.737C539.99 597.248 539.765 596.794 539.44 596.415C539.115 596.036 538.701 595.744 538.234 595.567C537.897 595.434 537.537 595.366 537.174 595.367H379.864C379.501 595.366 379.142 595.434 378.804 595.567C378.338 595.744 377.923 596.036 377.598 596.415C377.274 596.794 377.049 597.248 376.944 597.737L374.424 609.707C374.335 610.141 374.343 610.59 374.448 611.02C374.554 611.451 374.754 611.853 375.034 612.197Z" fill="#2F2E41"/>
<path d="M593.219 369.903H337.895C337.63 369.897 337.377 369.788 337.192 369.598C337.006 369.408 336.902 369.153 336.902 368.888C336.902 368.622 337.006 368.368 337.192 368.178C337.377 367.988 337.63 367.878 337.895 367.873H593.219C593.484 367.878 593.737 367.988 593.922 368.178C594.108 368.368 594.212 368.622 594.212 368.888C594.212 369.153 594.108 369.408 593.922 369.598C593.737 369.788 593.484 369.897 593.219 369.903V369.903Z" fill="#1B1A1A"/>
<path d="M355.275 362.688C358.562 362.688 361.226 359.965 361.226 356.605C361.226 353.246 358.562 350.522 355.275 350.522C351.989 350.522 349.325 353.246 349.325 356.605C349.325 359.965 351.989 362.688 355.275 362.688Z" fill="#1B1A1A"/>
<path d="M375.832 362.688C379.118 362.688 381.782 359.965 381.782 356.605C381.782 353.246 379.118 350.522 375.832 350.522C372.545 350.522 369.881 353.246 369.881 356.605C369.881 359.965 372.545 362.688 375.832 362.688Z" fill="#1B1A1A"/>
<path d="M396.388 362.688C399.674 362.688 402.338 359.965 402.338 356.605C402.338 353.246 399.674 350.522 396.388 350.522C393.101 350.522 390.437 353.246 390.437 356.605C390.437 359.965 393.101 362.688 396.388 362.688Z" fill="#1B1A1A"/>
<path d="M580.84 352.027H566.24C565.952 352.033 565.677 352.153 565.476 352.359C565.274 352.566 565.161 352.843 565.161 353.132C565.161 353.42 565.274 353.698 565.476 353.904C565.677 354.111 565.952 354.23 566.24 354.237H580.84C581.131 354.233 581.408 354.114 581.612 353.908C581.816 353.701 581.93 353.422 581.93 353.132C581.93 352.841 581.816 352.562 581.612 352.356C581.408 352.149 581.131 352.031 580.84 352.027Z" fill="#1B1A1A"/>
<path d="M580.841 356.177H566.241C565.952 356.183 565.677 356.302 565.475 356.509C565.273 356.715 565.16 356.993 565.16 357.282C565.16 357.571 565.273 357.848 565.475 358.054C565.677 358.261 565.952 358.38 566.241 358.387H580.841C581.131 358.383 581.409 358.265 581.613 358.058C581.818 357.851 581.932 357.572 581.932 357.282C581.932 356.991 581.818 356.712 581.613 356.505C581.409 356.298 581.131 356.18 580.841 356.177V356.177Z" fill="#1B1A1A"/>
<path d="M580.84 360.327H566.24C565.952 360.333 565.677 360.453 565.476 360.659C565.274 360.866 565.161 361.143 565.161 361.432C565.161 361.72 565.274 361.997 565.476 362.204C565.677 362.41 565.952 362.53 566.24 362.537H580.84C581.131 362.532 581.408 362.414 581.612 362.207C581.816 362.001 581.93 361.722 581.93 361.432C581.93 361.141 581.816 360.862 581.612 360.656C581.408 360.449 581.131 360.331 580.84 360.327V360.327Z" fill="#1B1A1A"/>
<path d="M496.064 425.103H451.873C450.07 425.103 448.609 426.564 448.609 428.367V432.684C448.609 434.487 450.07 435.949 451.873 435.949H496.064C497.867 435.949 499.328 434.487 499.328 432.684V428.367C499.328 426.564 497.867 425.103 496.064 425.103Z" fill="#0075FF"/>
<path d="M521.822 446.794H426.114C424.312 446.794 422.85 448.256 422.85 450.058V454.376C422.85 456.178 424.312 457.64 426.114 457.64H521.822C523.625 457.64 525.086 456.178 525.086 454.376V450.058C525.086 448.256 523.625 446.794 521.822 446.794Z" fill="#1B1A1A"/>
<path d="M521.822 468.486H426.114C424.312 468.486 422.85 469.947 422.85 471.75V476.067C422.85 477.87 424.312 479.331 426.114 479.331H521.822C523.625 479.331 525.086 477.87 525.086 476.067V471.75C525.086 469.947 523.625 468.486 521.822 468.486Z" fill="#1B1A1A"/>
<path d="M529.935 541.122L530.152 541.806L530.164 541.829L536.689 561.667L544.195 584.528L558.318 627.489L558.455 634.163V634.185L559.504 687.87L556.595 695.148L559.869 707.08C559.869 707.08 558.363 689.043 550.287 699.402C545.712 705.288 540.362 711.311 535.97 716.958C542.37 719.548 548.872 721.89 555.477 723.985C556.903 724.441 558.341 724.875 559.778 725.308C560.086 725.4 560.394 725.491 560.702 725.582C582.597 732.057 605.232 735.695 628.053 736.408C629.239 736.442 630.403 736.465 631.532 736.488C631.931 736.499 632.319 736.511 632.707 736.511C633.985 736.522 635.251 736.533 636.529 736.533C639.107 736.533 641.674 736.496 644.229 736.419C663.142 735.886 681.945 733.343 700.32 728.833C700.195 721.247 699.853 712.383 699.362 702.915C699.134 698.272 694.012 693.241 693.704 688.382C693.487 684.731 698.084 681.298 697.845 677.59C696.293 654.763 694.354 663.526 692.917 647.361C692.768 645.776 692.632 644.258 692.506 642.81C691.582 632.429 690.943 625.938 690.943 625.938L697.081 587.254L706.72 526.52L705.979 525.299L705.146 524.889L654.302 499.723L651.541 492.65C650.737 490.613 649.341 488.862 647.534 487.624C645.727 486.386 643.59 485.717 641.4 485.703L607.907 485.566C606.169 485.558 604.454 485.965 602.904 486.753C601.355 487.54 600.015 488.686 598.997 490.095L589.928 502.655L529.935 541.122Z" fill="#232131"/>
<path d="M566.041 617.929L558.455 634.163L553.276 645.251L544.366 691.897L539.906 696.631L536.084 679.872L496.086 688.753C494.775 681.463 495.735 688.999 494.925 681.002C495.153 680.774 495.393 680.546 495.633 680.318C496.271 679.725 496.808 679.166 496.796 678.63C496.34 651.046 497.709 604.103 509.139 575.664C510.929 571.021 513.29 566.618 516.166 562.557C516.395 562.249 516.611 561.941 516.828 561.633C522.098 554.252 525.429 546.985 530.152 541.818V541.806C530.182 541.782 530.208 541.756 530.232 541.726C530.249 541.718 530.265 541.706 530.278 541.692L562.721 524.489L564.113 563.595L565.105 591.703L566.041 617.929Z" fill="#232131"/>
<path d="M683.026 622.54L692.501 642.815L695.809 649.876L704.716 696.518L709.162 701.24L712.992 684.485L714.792 684.116L747.25 677.393L756.711 707.44C758.843 703.887 759.683 699.707 759.089 695.606C758.495 691.505 756.503 687.736 753.45 684.934C752.804 684.35 752.265 683.78 752.281 683.242C752.819 650.799 750.835 591.558 732.913 567.176C727.221 559.438 723.806 551.731 718.838 546.347C718.822 546.332 718.822 546.317 718.807 546.317L706.716 526.518L705.977 525.303L705.147 524.888L683.026 622.54Z" fill="#232131"/>
<path d="M625.621 476.035C650.23 476.035 670.179 456.085 670.179 431.476C670.179 406.867 650.23 386.918 625.621 386.918C601.012 386.918 581.062 406.867 581.062 431.476C581.062 456.085 601.012 476.035 625.621 476.035Z" fill="#FFB6B6"/>
<path d="M685.846 400.353C685.501 399.984 685.085 399.688 684.623 399.483C684.16 399.279 683.662 399.17 683.156 399.163L683.826 397.303C684.045 396.717 684.104 396.083 683.997 395.467C683.891 394.851 683.622 394.274 683.219 393.796C682.816 393.318 682.294 392.955 681.704 392.745C681.115 392.536 680.481 392.486 679.867 392.603L677.427 393.073L677.656 391.443C677.745 390.835 677.673 390.216 677.449 389.645C677.226 389.074 676.857 388.571 676.38 388.185C675.902 387.8 675.333 387.545 674.728 387.446C674.122 387.348 673.501 387.408 672.927 387.622C672.404 387.828 671.841 387.915 671.28 387.875C670.72 387.835 670.175 387.67 669.686 387.393C669.196 387.123 668.77 386.75 668.438 386.3C668.107 385.849 667.877 385.331 667.766 384.782L666.917 380.682L666.826 380.462C662.686 373.562 654.727 368.542 644.987 366.702C636.316 365.052 627.427 365.892 618.857 366.682C615.457 367.002 611.617 367.362 608.417 369.322C605.697 371.002 603.397 374.362 603.867 377.752C595.417 375.162 586.357 380.332 581.867 386.852C576.547 394.612 575.677 404.332 575.537 411.932C575.157 429.912 578.867 444.622 586.537 455.662C587.097 456.462 587.236 458.132 588.346 458.692L588.117 458.322C589.357 458.942 590.616 459.942 590.146 461.012C588.796 464.092 597.766 470.902 604.086 473.152C615.616 477.262 630.947 476.912 641.727 475.432L642.107 472.882C645.997 472.352 648.736 471.342 649.506 469.762C650.867 468.602 652.026 467.562 653.036 466.602L653.047 466.592C653.067 466.572 653.106 466.542 653.126 466.522C657.996 461.852 659.126 459.193 659.636 455.143C660.126 451.173 659.257 447.143 658.367 443.513C677.107 446.413 650.986 423.553 668.446 419.133C668.647 419.071 668.85 419.021 669.056 418.983C669.566 418.863 670.076 418.743 670.566 418.603C672.928 417.961 675.19 416.995 677.286 415.733C682.166 412.763 683.777 408.823 686.297 404.383C686.66 403.75 686.813 403.019 686.732 402.294C686.651 401.569 686.341 400.889 685.846 400.353V400.353Z" fill="#121213"/>
<path d="M783.217 625.713C783.207 627.463 783.187 629.912 783.107 632.942C783.097 633.362 783.087 633.792 783.077 634.232C782.947 639.802 782.817 644.472 782.607 649.662C782.597 650.022 782.587 650.372 782.567 650.732C782.287 657.972 781.847 666.402 781.087 679.752C779.677 704.412 777.217 683.142 774.747 691.792C774.627 692.222 774.497 692.733 774.377 693.333C774.003 695.509 773.371 697.634 772.497 699.662C771.187 700.442 769.837 701.193 768.507 701.943C764.717 704.053 760.867 706.082 756.987 708.013C754.807 709.093 752.617 710.152 750.417 711.172C750.067 711.332 749.727 711.493 749.387 711.643C738.121 716.853 726.51 721.284 714.637 724.903C712.317 725.603 710.007 726.282 707.667 726.912C705.227 727.592 702.787 728.233 700.317 728.833C681.942 733.344 663.139 735.888 644.227 736.422C641.677 736.502 639.107 736.533 636.527 736.533C635.247 736.533 633.987 736.523 632.707 736.513C632.317 736.513 631.927 736.502 631.537 736.492C630.407 736.462 629.237 736.442 628.057 736.412C605.236 735.701 582.6 732.061 560.707 725.583L559.777 725.312C558.337 724.873 556.907 724.442 555.477 723.982C548.877 721.892 542.373 719.553 535.967 716.963C531.077 714.993 526.243 712.879 521.467 710.622C521.423 710.611 521.382 710.59 521.347 710.562C520.347 710.102 519.337 709.623 518.337 709.133C518.207 709.063 518.067 708.992 517.927 708.922C514.197 707.102 510.507 705.196 506.857 703.203C503.787 696.152 499.467 694.802 496.787 688.602C496.007 686.761 495.443 684.834 495.107 682.862C495.107 682.842 495.097 682.822 495.097 682.792C495.377 686.512 493.907 676.192 495.087 682.752C495.077 682.632 495.067 682.502 495.057 682.352C495.027 681.992 494.987 681.552 494.927 681.002C491.497 647.512 491.717 609.213 490.227 577.653C490.127 575.613 490.023 573.659 489.917 571.792C489.887 571.172 489.847 570.563 489.807 569.963C489.877 569.783 489.957 569.592 490.047 569.412C490.066 569.361 490.089 569.31 490.117 569.263C490.146 569.2 490.18 569.14 490.217 569.083C490.237 569.053 490.267 569.012 490.287 568.982C490.301 568.948 490.318 568.915 490.337 568.883C490.427 568.743 490.527 568.593 490.637 568.453C490.687 568.393 490.727 568.342 490.777 568.292C490.811 568.241 490.851 568.194 490.897 568.153C490.927 568.104 490.964 568.061 491.007 568.023C491.047 567.983 491.087 567.933 491.137 567.883C491.158 567.851 491.185 567.824 491.217 567.803C491.296 567.712 491.383 567.628 491.477 567.553C491.833 567.224 492.215 566.923 492.617 566.653C492.757 566.563 492.907 566.473 493.047 566.373C494.054 565.77 495.116 565.261 496.217 564.853C496.597 564.713 496.977 564.583 497.387 564.443C497.537 564.403 497.677 564.353 497.827 564.303C498.047 564.233 498.267 564.163 498.497 564.113C499.637 563.773 500.867 563.483 502.197 563.213C502.357 563.183 502.527 563.153 502.697 563.113C502.937 563.063 503.187 563.023 503.437 562.983C503.777 562.923 504.127 562.863 504.477 562.803C507.447 562.333 510.817 561.983 514.537 561.753C514.887 561.733 515.237 561.713 515.587 561.693C515.997 561.673 516.407 561.653 516.827 561.633C517.177 561.613 517.537 561.603 517.897 561.593C518.247 561.573 518.607 561.563 518.977 561.553C519.987 561.523 521.027 561.493 522.087 561.473C525.107 561.413 528.287 561.433 531.627 561.503C533.177 561.543 534.757 561.583 536.377 561.653C536.487 561.653 536.587 561.663 536.687 561.663C538.097 561.713 539.517 561.773 540.977 561.853C541.997 561.903 543.027 561.953 544.057 562.013C545.027 562.073 546.007 562.133 546.997 562.203C547.767 562.243 548.537 562.303 549.317 562.353C549.977 562.403 550.637 562.453 551.297 562.493L552.197 562.553C552.687 562.593 553.177 562.623 553.677 562.673C554.777 562.763 555.877 562.853 556.997 562.943C558.107 563.043 559.237 563.143 560.367 563.243C561.497 563.343 562.637 563.453 563.777 563.563C563.897 563.573 564.007 563.583 564.117 563.593C565.157 563.703 566.197 563.803 567.247 563.913C567.487 563.933 567.737 563.953 567.977 563.983C568.978 564.083 569.998 564.201 571.009 564.308C571.319 564.342 571.627 564.374 571.938 564.408C572.729 564.494 573.51 564.569 574.306 564.663C575.356 564.783 576.427 564.893 577.467 565.033C578.277 565.123 579.087 565.213 579.897 565.313C581.167 565.463 582.456 565.623 583.746 565.793C584.236 565.853 584.727 565.913 585.217 565.983C588.897 566.443 592.617 566.953 596.397 567.483C602.127 568.293 607.946 569.173 613.806 570.123C619.677 571.073 625.58 572.076 631.517 573.133C633.017 573.403 634.517 573.673 636.027 573.953C636.707 574.082 637.386 574.212 638.066 574.342C639.226 574.552 640.386 574.772 641.546 574.992C642.706 575.212 643.867 575.432 645.027 575.662C646.407 575.932 647.796 576.202 649.176 576.472C658.266 578.272 667.306 580.193 676.126 582.203C677.576 582.532 679.027 582.873 680.467 583.203C683.347 583.873 686.2 584.552 689.027 585.242C689.807 585.422 690.577 585.612 691.347 585.802C693.267 586.282 695.187 586.762 697.077 587.252L697.407 587.342C698.797 587.682 700.157 588.033 701.517 588.393C704.727 589.233 707.883 590.082 710.986 590.942C713.046 591.512 715.083 592.089 717.097 592.672C720.107 593.542 723.056 594.422 725.926 595.312C726.636 595.532 727.346 595.752 728.046 595.962C730.146 596.612 732.216 597.272 734.226 597.932C735.826 598.452 737.386 598.983 738.926 599.513C740.466 600.043 741.977 600.572 743.457 601.102C744.407 601.442 745.346 601.803 746.286 602.143C747.636 602.643 748.967 603.143 750.267 603.643C750.667 603.793 751.057 603.952 751.447 604.102C751.697 604.212 751.936 604.302 752.176 604.402C752.646 604.592 753.127 604.772 753.587 604.962C754.057 605.142 754.516 605.332 754.976 605.532C755.426 605.712 755.887 605.902 756.327 606.092C756.777 606.272 757.217 606.462 757.657 606.662C758.027 606.812 758.386 606.972 758.736 607.132C759.446 607.442 760.157 607.753 760.847 608.073C761.187 608.233 761.526 608.382 761.866 608.542L762.647 608.902C762.757 608.962 762.866 609.012 762.976 609.062C763.226 609.182 763.486 609.312 763.736 609.432C764.316 609.702 764.887 609.993 765.447 610.263C766.197 610.643 766.926 611.023 767.626 611.393C768.336 611.772 769.026 612.153 769.686 612.522C769.796 612.582 769.897 612.643 770.007 612.703C770.157 612.782 770.307 612.873 770.457 612.953C770.967 613.243 771.457 613.543 771.947 613.832C772.907 614.422 773.816 615.002 774.666 615.582C774.856 615.712 775.036 615.842 775.226 615.962C775.856 616.412 776.457 616.852 777.017 617.302C777.017 617.312 777.017 617.312 777.027 617.312C777.217 617.452 777.397 617.602 777.577 617.742C777.727 617.882 777.886 618.002 778.036 618.142C778.556 618.592 779.036 619.022 779.476 619.462C779.624 619.598 779.764 619.742 779.897 619.892C779.955 619.941 780.008 619.994 780.056 620.052C780.256 620.252 780.436 620.452 780.606 620.652C780.633 620.68 780.656 620.71 780.676 620.742C780.916 621.022 781.137 621.302 781.347 621.582C781.447 621.722 781.557 621.862 781.647 622.002C781.767 622.172 781.886 622.352 781.986 622.522C782.076 622.662 782.156 622.812 782.236 622.953C782.449 623.313 782.629 623.691 782.777 624.082C782.889 624.348 782.979 624.622 783.046 624.902C783.122 625.168 783.179 625.439 783.217 625.713Z" fill="#151515"/>
<path opacity="0.2" d="M783.217 625.713C783.207 627.463 783.187 629.913 783.107 632.943C783.097 633.363 783.076 633.792 783.066 634.232C782.966 638.482 782.817 643.732 782.607 649.662C782.597 650.022 782.586 650.372 782.566 650.732C782.286 657.972 781.847 666.403 781.087 679.753C779.677 704.413 777.216 683.142 774.746 691.792C767.886 687.572 760.367 683.152 752.327 678.612C750.877 677.792 749.413 676.969 747.936 676.143C731.856 667.173 713.897 657.772 695.147 648.463C694.407 648.093 693.657 647.722 692.917 647.362C649.967 626.132 603.087 605.483 565.107 591.703C557.777 589.043 550.777 586.643 544.197 584.532C530.337 580.102 518.357 577.002 509.137 575.662C499.537 574.262 492.907 574.762 490.227 577.652C490.126 575.612 490.023 573.659 489.917 571.792C489.876 571.172 489.836 570.562 489.797 569.962C489.858 569.798 489.938 569.641 490.016 569.482C490.027 569.459 490.035 569.435 490.047 569.412C490.066 569.361 490.089 569.31 490.117 569.262C490.146 569.2 490.179 569.14 490.217 569.082C490.249 569.012 490.289 568.945 490.337 568.882C490.427 568.742 490.527 568.592 490.637 568.452C490.717 568.348 490.804 568.247 490.897 568.152C490.927 568.104 490.964 568.061 491.007 568.022C491.047 567.982 491.087 567.932 491.137 567.882C491.158 567.851 491.185 567.824 491.217 567.803C491.296 567.712 491.383 567.628 491.477 567.553C491.833 567.224 492.214 566.923 492.617 566.652C492.756 566.562 492.907 566.472 493.047 566.372C494.054 565.77 495.115 565.261 496.217 564.852C496.597 564.712 496.977 564.582 497.387 564.442C497.537 564.402 497.677 564.353 497.827 564.303C498.047 564.233 498.267 564.162 498.497 564.112C499.637 563.772 500.867 563.482 502.197 563.212C502.597 563.132 503.017 563.052 503.437 562.982C503.777 562.922 504.127 562.863 504.477 562.803C507.447 562.333 510.817 561.982 514.537 561.752C514.887 561.732 515.237 561.712 515.587 561.692C515.997 561.672 516.407 561.652 516.827 561.632C517.177 561.612 517.537 561.602 517.897 561.592C518.247 561.572 518.607 561.563 518.977 561.553C519.987 561.523 521.027 561.492 522.087 561.472C525.107 561.422 528.287 561.442 531.627 561.512C533.177 561.542 534.757 561.592 536.377 561.662C536.477 561.662 536.587 561.672 536.687 561.672C538.097 561.712 539.527 561.782 540.977 561.852C541.997 561.902 543.027 561.952 544.056 562.012C545.026 562.072 546.006 562.132 546.996 562.202C547.766 562.242 548.536 562.302 549.316 562.352C549.976 562.402 550.636 562.452 551.296 562.492C552.086 562.552 552.876 562.612 553.676 562.672C554.776 562.762 555.876 562.852 556.996 562.942C558.106 563.042 559.236 563.142 560.366 563.242C561.496 563.342 562.636 563.452 563.776 563.562C563.896 563.572 564.006 563.582 564.116 563.592C565.156 563.703 566.196 563.802 567.246 563.912C573.066 564.502 579.056 565.192 585.216 565.982C588.896 566.452 592.623 566.956 596.396 567.492C602.126 568.302 607.946 569.182 613.806 570.122C619.677 571.072 625.58 572.076 631.516 573.132C633.016 573.402 634.516 573.672 636.026 573.952C637.866 574.292 639.706 574.639 641.546 574.992C642.706 575.212 643.866 575.432 645.026 575.662C646.406 575.932 647.796 576.202 649.176 576.472C658.266 578.272 667.306 580.192 676.126 582.202C677.576 582.532 679.026 582.872 680.466 583.202C683.346 583.872 686.2 584.552 689.026 585.242C689.806 585.432 690.576 585.622 691.346 585.812C693.276 586.292 695.186 586.772 697.076 587.252V587.262C697.186 587.282 697.296 587.312 697.406 587.342C698.786 587.692 700.156 588.042 701.516 588.402C704.726 589.242 707.883 590.089 710.986 590.942C713.046 591.522 715.086 592.092 717.096 592.672C720.106 593.552 723.056 594.432 725.926 595.312C726.636 595.532 727.346 595.752 728.046 595.962C730.146 596.622 732.206 597.279 734.226 597.932C735.826 598.452 737.386 598.982 738.926 599.512C740.466 600.042 741.976 600.572 743.456 601.102C744.416 601.442 745.356 601.792 746.286 602.132C747.646 602.632 748.966 603.132 750.266 603.642C750.666 603.792 751.056 603.952 751.446 604.102C752.176 604.382 752.886 604.672 753.586 604.962C754.056 605.142 754.516 605.332 754.976 605.532C755.426 605.712 755.886 605.902 756.326 606.092C756.776 606.272 757.216 606.462 757.656 606.662C758.026 606.812 758.386 606.972 758.736 607.132C759.446 607.442 760.156 607.752 760.846 608.072C761.186 608.232 761.526 608.382 761.866 608.542L762.646 608.902C762.756 608.962 762.866 609.012 762.976 609.062C763.826 609.462 764.646 609.862 765.446 610.262C766.196 610.642 766.926 611.022 767.626 611.392C768.456 611.832 769.246 612.262 770.006 612.702C770.156 612.782 770.306 612.872 770.456 612.952C770.966 613.242 771.456 613.542 771.946 613.832C772.906 614.422 773.816 615.002 774.666 615.582C775.506 616.162 776.286 616.732 777.016 617.302C777.016 617.312 777.016 617.312 777.026 617.312C777.376 617.592 777.716 617.872 778.036 618.142C778.556 618.592 779.036 619.022 779.476 619.462C779.624 619.598 779.764 619.742 779.896 619.892C779.955 619.941 780.008 619.994 780.056 620.052C780.266 620.282 780.476 620.512 780.677 620.742C780.917 621.022 781.137 621.302 781.347 621.582C781.447 621.722 781.557 621.862 781.647 622.002C781.767 622.172 781.887 622.352 781.987 622.522C782.077 622.662 782.157 622.812 782.237 622.952C782.449 623.313 782.629 623.691 782.777 624.082C782.886 624.349 782.976 624.623 783.047 624.902C783.122 625.168 783.179 625.439 783.217 625.713V625.713Z" fill="#333333"/>
</g>
<defs>
<filter id="filter0_i_530_386" x="746" y="138" width="258" height="275" filterUnits="userSpaceOnUse" color-interpolation-filters="sRGB">
<feFlood flood-opacity="0" result="BackgroundImageFix"/>
<feBlend mode="normal" in="SourceGraphic" in2="BackgroundImageFix" result="shape"/>
<feColorMatrix in="SourceAlpha" type="matrix" values="0 0 0 0 0 0 0 0 0 0 0 0 0 0 0 0 0 0 127 0" result="hardAlpha"/>
<feOffset dy="4"/>
<feGaussianBlur stdDeviation="34"/>
<feComposite in2="hardAlpha" operator="arithmetic" k2="-1" k3="1"/>
<feColorMatrix type="matrix" values="0 0 0 0 0 0 0 0 0 0.46 0 0 0 0 1 0 0 0 1 0"/>
<feBlend mode="normal" in2="shape" result="effect1_innerShadow_530_386"/>
</filter>
<filter id="filter1_d_530_386" x="0" y="-2.38419e-07" width="1297.04" height="1039.53" filterUnits="userSpaceOnUse" color-interpolation-filters="sRGB">
<feFlood flood-opacity="0" result="BackgroundImageFix"/>
<feColorMatrix in="SourceAlpha" type="matrix" values="0 0 0 0 0 0 0 0 0 0 0 0 0 0 0 0 0 0 127 0" result="hardAlpha"/>
<feOffset dx="21" dy="53"/>
<feGaussianBlur stdDeviation="125"/>
<feComposite in2="hardAlpha" operator="out"/>
<feColorMatrix type="matrix" values="0 0 0 0 0 0 0 0 0 0.374016 0 0 0 0 1 0 0 0 1 0"/>
<feBlend mode="normal" in2="BackgroundImageFix" result="effect1_dropShadow_530_386"/>
<feBlend mode="normal" in="SourceGraphic" in2="effect1_dropShadow_530_386" result="shape"/>
</filter>
<linearGradient id="paint0_linear_530_386" x1="835.5" y1="155" x2="875" y2="409" gradientUnits="userSpaceOnUse">
<stop stop-color="#0774F4"/>
<stop offset="1" stop-color="#4994EC"/>
</linearGradient>
</defs>
</svg>
