<svg width="1157" height="1030" viewBox="0 0 1602 1601" fill="none" xmlns="http://www.w3.org/2000/svg">
<path d="M0.125 289.069V1311.93C0.125 1388.6 30.5804 1462.12 84.7915 1516.33C139.003 1570.54 212.528 1601 289.194 1601H1312.06C1388.72 1601 1462.25 1570.54 1516.46 1516.33C1570.67 1462.12 1601.12 1388.6 1601.12 1311.93V289.069C1601.12 212.403 1570.67 138.878 1516.46 84.6665C1462.25 30.4554 1388.72 0 1312.06 0H289.194C212.528 0 139.003 30.4554 84.7915 84.6665C30.5804 138.878 0.125 212.403 0.125 289.069ZM800.625 578.139C818.317 578.139 835.285 585.167 847.795 597.677C860.305 610.188 867.333 627.155 867.333 644.847V1178.51C867.333 1219.8 850.934 1259.39 821.744 1288.58C792.553 1317.77 752.962 1334.17 711.681 1334.17H600.5C582.808 1334.17 565.84 1327.14 553.33 1314.63C540.82 1302.12 533.792 1285.15 533.792 1267.46C533.792 1249.77 540.82 1232.8 553.33 1220.29C565.84 1207.78 582.808 1200.75 600.5 1200.75H711.681C717.578 1200.75 723.234 1198.41 727.404 1194.24C731.574 1190.07 733.917 1184.41 733.917 1178.51V644.847C733.917 627.155 740.945 610.188 753.455 597.677C765.965 585.167 782.933 578.139 800.625 578.139ZM978.514 733.792C978.514 647.871 1048.25 578.139 1134.17 578.139H1267.58C1285.28 578.139 1302.24 585.167 1314.75 597.677C1327.26 610.188 1334.29 627.155 1334.29 644.847C1334.29 662.539 1327.26 679.507 1314.75 692.017C1302.24 704.527 1285.28 711.556 1267.58 711.556H1134.17C1128.27 711.556 1122.61 713.898 1118.44 718.068C1114.27 722.238 1111.93 727.894 1111.93 733.792V867.208C1111.93 879.483 1121.89 889.444 1134.17 889.444H1178.64C1264.56 889.444 1334.29 959.177 1334.29 1045.1V1178.51C1334.29 1219.8 1317.89 1259.39 1288.7 1288.58C1259.51 1317.77 1219.92 1334.17 1178.64 1334.17H1045.22C1027.53 1334.17 1010.56 1327.14 998.052 1314.63C985.542 1302.12 978.514 1285.15 978.514 1267.46C978.514 1249.77 985.542 1232.8 998.052 1220.29C1010.56 1207.78 1027.53 1200.75 1045.22 1200.75H1178.64C1184.54 1200.75 1190.19 1198.41 1194.36 1194.24C1198.53 1190.07 1200.88 1184.41 1200.88 1178.51V1045.1C1200.88 1039.2 1198.53 1033.54 1194.36 1029.37C1190.19 1025.2 1184.54 1022.86 1178.64 1022.86H1134.17C1092.88 1022.86 1053.29 1006.46 1024.1 977.271C994.913 948.081 978.514 908.49 978.514 867.208V733.792Z" fill="#0075ff"/>
</svg>
