<svg width="67" height="67" viewBox="0 0 67 67" fill="none" xmlns="http://www.w3.org/2000/svg">
<path fill-rule="evenodd" clip-rule="evenodd" d="M2.79163 7.9226C2.79163 6.56175 3.33222 5.25664 4.29449 4.29437C5.25675 3.33211 6.56186 2.79151 7.92271 2.79151H59.0716C59.746 2.79041 60.414 2.92234 61.0374 3.17974C61.6607 3.43714 62.2271 3.81496 62.7043 4.29157C63.1814 4.76819 63.5599 5.33423 63.8179 5.95729C64.076 6.58035 64.2087 7.2482 64.2083 7.9226V59.0715C64.209 59.746 64.0768 60.4141 63.819 61.0375C63.5613 61.6608 63.1833 62.2272 62.7064 62.7043C62.2296 63.1814 61.6634 63.5598 61.0401 63.8179C60.4169 64.0759 59.7489 64.2085 59.0744 64.2082H7.92271C7.24865 64.2082 6.5812 64.0754 5.95848 63.8173C5.33577 63.5593 4.77 63.1811 4.2935 62.7043C3.817 62.2276 3.4391 61.6616 3.18141 61.0387C2.92371 60.4159 2.79126 59.7484 2.79163 59.0743V7.9226ZM27.1015 26.208H35.4178V30.3843C36.6183 27.9835 39.6891 25.8228 44.3037 25.8228C53.1505 25.8228 55.247 30.6049 55.247 39.3791V55.6322H46.2942V41.3779C46.2942 36.3808 45.0938 33.5613 42.0452 33.5613C37.8159 33.5613 36.0571 36.6014 36.0571 41.3779V55.6322H27.1015V26.208ZM11.7473 55.2497H20.703V25.8228H11.7473V55.2469V55.2497ZM21.9843 16.225C22.0012 16.9918 21.8648 17.7543 21.583 18.4676C21.3012 19.1809 20.8798 19.8308 20.3435 20.3791C19.8071 20.9274 19.1667 21.363 18.4597 21.6604C17.7528 21.9578 16.9935 22.111 16.2265 22.111C15.4595 22.111 14.7003 21.9578 13.9933 21.6604C13.2863 21.363 12.6459 20.9274 12.1096 20.3791C11.5732 19.8308 11.1518 19.1809 10.87 18.4676C10.5883 17.7543 10.4518 16.9918 10.4687 16.225C10.5019 14.7199 11.123 13.2876 12.1992 12.2348C13.2754 11.1821 14.721 10.5926 16.2265 10.5926C17.732 10.5926 19.1776 11.1821 20.2538 12.2348C21.33 13.2876 21.9512 14.7199 21.9843 16.225Z" fill="white"/>
</svg>
