<svg width="102" height="102" viewBox="0 0 102 102" fill="none" xmlns="http://www.w3.org/2000/svg">
<path d="M92.0689 33.7074C89.8341 28.3736 86.5829 23.5255 82.4965 19.4334C78.4223 15.3342 73.5826 12.075 68.2523 9.84101C62.7919 7.54134 56.9249 6.36254 51 6.3746H50.8008C44.7744 6.40449 38.9473 7.5998 33.4588 9.95058C28.1742 12.2075 23.38 15.4724 19.3441 19.5629C15.2973 23.6458 12.0833 28.4769 9.88125 33.7871C7.59536 39.3091 6.43709 45.2325 6.47461 51.2088C6.50449 58.1217 8.15801 64.9848 11.2459 71.1207V86.2613C11.2459 88.7914 13.2978 90.8434 15.818 90.8434H30.9387C37.1032 93.954 43.9059 95.5907 50.8107 95.6246H51.0199C56.9766 95.6246 62.7439 94.4691 68.1826 92.208C73.4859 90.0006 78.3075 86.7795 82.3769 82.7252C86.4809 78.6512 89.7082 73.8898 91.9693 68.5807C94.3101 63.0822 95.5055 57.2351 95.5353 51.1988C95.5553 45.1326 94.3799 39.2457 92.0689 33.7074ZM31.118 55.7809C28.4883 55.7809 26.3467 53.6393 26.3467 50.9996C26.3467 48.36 28.4883 46.2184 31.118 46.2184C33.7477 46.2184 35.8893 48.36 35.8893 50.9996C35.8893 53.6393 33.7576 55.7809 31.118 55.7809ZM51 55.7809C48.3703 55.7809 46.2287 53.6393 46.2287 50.9996C46.2287 48.36 48.3703 46.2184 51 46.2184C53.6297 46.2184 55.7713 48.36 55.7713 50.9996C55.7713 53.6393 53.6297 55.7809 51 55.7809ZM70.882 55.7809C68.2523 55.7809 66.1107 53.6393 66.1107 50.9996C66.1107 48.36 68.2523 46.2184 70.882 46.2184C73.5117 46.2184 75.6533 48.36 75.6533 50.9996C75.6533 53.6393 73.5117 55.7809 70.882 55.7809Z" fill="white"/>
</svg>
