<svg width="1157" height="1030" viewBox="0 0 3411 688" fill="none" xmlns="http://www.w3.org/2000/svg">
<path d="M2861.66 0.286606V109.997H2625.98V687.187H2508.12V110.003H2267.53V0.286606H2861.66ZM2888.16 621.754C2896.46 621.754 2903.72 624.74 2909.87 630.726C2916.11 636.704 2919.21 643.869 2919.3 652.214C2919.28 657.69 2917.76 663.056 2914.9 667.724C2912.09 672.332 2908.17 676.151 2903.48 678.822C2898.85 681.59 2893.55 683.033 2888.16 682.994C2879.52 682.994 2872.18 680.002 2866.04 674.023C2859.89 668.038 2856.85 660.792 2856.93 652.214C2856.85 643.869 2859.89 636.704 2866.04 630.726C2872.18 624.74 2879.52 621.754 2888.16 621.754ZM552.395 687.187L117.853 146.822V686.907H0V0H147.306L696.304 682.048L696.31 110.003L696.264 0.286606H1290.39V109.997H814.156V286.492H1197.15V396.209H814.156V577.477H1290.4V687.187H552.395ZM1668.09 395.162L1745.33 491.229L1587.07 688H1432.41L1668.09 395.162ZM1587.07 0.573211L1786.46 248.32L1985.24 1.33305L2139.46 1.09977L1863.68 344.26L2139.91 687.473H1985.24L1432.85 0.573211H1587.07ZM3089.29 393.623H3141.51V594.913C3141.44 613.409 3137.43 629.226 3129.62 642.536C3121.71 655.834 3110.77 665.991 3096.72 673.157C3082.74 680.235 3066.38 683.861 3047.77 683.861C3030.76 683.861 3015.52 680.795 3001.94 674.809C2988.36 668.824 2977.59 659.853 2969.68 648.042C2961.69 636.238 2957.78 621.514 2957.78 603.885H3010.09C3010.17 611.596 3011.92 618.282 3015.27 623.88C3018.57 629.406 3023.4 633.859 3029.17 636.704C3035.15 639.704 3042.03 641.197 3049.76 641.197C3058.15 641.197 3065.34 639.464 3071.17 635.918C3076.99 632.452 3081.47 627.26 3084.58 620.334C3087.61 613.483 3089.21 604.984 3089.29 594.907V393.623ZM3356.38 472.339C3355.11 460.142 3349.52 450.611 3339.78 443.845C3329.95 436.994 3317.26 433.614 3301.68 433.614C3290.76 433.614 3281.33 435.267 3273.5 438.493C3265.68 441.799 3259.61 446.205 3255.45 451.797C3251.31 457.382 3249.23 463.761 3249.06 470.926C3249.06 476.905 3250.5 482.104 3253.29 486.43C3256.19 490.965 3260.1 494.766 3264.71 497.534C3269.73 500.687 3275.09 503.248 3280.69 505.166C3286.59 507.212 3292.51 508.945 3298.41 510.365L3325.64 517.056C3336.58 519.576 3347.2 522.955 3357.34 527.288C3367.48 531.54 3376.66 536.972 3384.72 543.504C3392.79 550.036 3399.18 557.908 3403.89 567.119C3408.6 576.33 3411 587.115 3411 599.552C3411 616.315 3406.69 631.039 3397.98 643.789C3389.28 656.467 3376.74 666.385 3360.29 673.55C3343.93 680.635 3324.12 684.254 3300.81 684.254C3278.29 684.254 3258.65 680.788 3242.12 673.863C3225.51 667.018 3212.58 656.933 3203.23 643.709C3193.89 630.486 3188.86 614.349 3188.14 595.38H3239.89C3240.6 605.298 3243.8 613.563 3249.23 620.254C3254.73 626.866 3261.92 631.745 3270.71 635.051C3279.57 638.284 3289.47 639.937 3300.41 639.937C3311.83 639.937 3321.89 638.204 3330.59 634.818C3339.22 631.432 3346 626.713 3350.87 620.568C3355.82 614.502 3358.3 607.344 3358.38 599.159C3358.3 591.681 3356.06 585.462 3351.75 580.576C3347.36 575.697 3341.29 571.605 3333.54 568.299C3325.72 564.993 3316.62 562 3306.24 559.407L3273.18 551.063C3249.3 544.997 3230.38 535.792 3216.57 523.428C3202.68 511.071 3195.81 494.701 3195.81 474.152C3195.81 457.309 3200.44 442.506 3209.78 429.828C3219.04 417.164 3231.74 407.32 3247.79 400.315C3263.91 393.23 3282.13 389.764 3302.4 389.764C3323.01 389.764 3341.05 393.23 3356.62 400.315C3372.19 407.32 3384.41 417.078 3393.27 429.515C3402.13 441.959 3406.77 456.203 3407.01 472.339H3356.38Z" fill="#0075ff"/>
</svg>
