<svg width="1157" height="1030" viewBox="0 0 2118 1345" fill="none" xmlns="http://www.w3.org/2000/svg">
<path d="M1455.27 0C1449.83 0 1444.62 2.16023 1440.78 6.00548C1436.93 9.85074 1434.77 15.0661 1434.77 20.5041V396.207L1349.64 346.519C1344.39 343.41 1338.4 341.77 1332.29 341.77C1326.18 341.77 1320.19 343.41 1314.94 346.519L1110.38 465.852C1105.15 468.873 1100.8 473.216 1097.78 478.447C1094.76 483.677 1093.17 489.61 1093.16 495.651V734.592C1093.16 746.895 1099.72 758.24 1110.38 764.391L1314.94 883.725C1320.19 886.834 1326.18 888.474 1332.29 888.474C1338.4 888.474 1344.39 886.834 1349.64 883.725L1554.2 764.391C1559.43 761.371 1563.78 757.027 1566.8 751.797C1569.82 746.567 1571.41 740.633 1571.42 734.592V84.0667C1571.4 78.106 1569.83 72.253 1566.86 67.0866C1563.89 61.9201 1559.62 57.6192 1554.48 54.6091L1465.45 2.80221C1462.39 0.991472 1458.9 0.0246429 1455.34 0H1455.27ZM785.71 341.871C779.617 341.863 773.63 343.467 768.356 346.519L563.798 465.852C558.568 468.873 554.224 473.216 551.202 478.447C548.18 483.677 546.586 489.61 546.581 495.651V734.592C546.581 746.895 553.14 758.24 563.798 764.391L768.356 883.725C779.082 889.876 792.269 889.876 803.064 883.725L1007.62 764.391C1012.85 761.371 1017.2 757.027 1020.22 751.797C1023.24 746.567 1024.83 740.633 1024.84 734.592V495.651C1024.85 489.608 1023.26 483.669 1020.24 478.436C1017.21 473.203 1012.86 468.862 1007.62 465.852L803.064 346.519C797.789 343.467 791.803 341.863 785.71 341.871ZM1878.87 341.871C1872.77 341.84 1866.78 343.445 1861.52 346.519L1656.96 465.852C1651.73 468.873 1647.39 473.216 1644.36 478.447C1641.34 483.677 1639.75 489.61 1639.74 495.651V734.592C1639.74 746.895 1646.3 758.24 1656.96 764.391L1855.37 884.34C1860.61 887.523 1866.62 889.23 1872.75 889.278C1878.89 889.326 1884.92 887.714 1890.21 884.614L1987.78 827.886C1990.07 826.533 1991.97 824.605 1993.3 822.291C1994.62 819.978 1995.31 817.359 1995.31 814.695C1995.31 812.03 1994.62 809.412 1993.3 807.098C1991.97 804.785 1990.07 802.856 1987.78 801.504L1776.39 676.907V554.293L1878.87 494.626L1981.35 554.293V639.727C1981.35 651.141 1990.92 652.918 1997.34 649.09C2031.88 628.918 2066.45 608.801 2101.06 588.74C2106.2 585.735 2110.48 581.435 2113.45 576.268C2116.42 571.1 2117.99 565.244 2118 559.282V495.72C2118.01 489.676 2116.42 483.737 2113.4 478.504C2110.37 473.272 2106.02 468.931 2100.78 465.921L1896.22 346.587C1890.96 343.523 1884.97 341.919 1878.87 341.939V341.871ZM239.129 342.008C233.033 341.977 227.04 343.582 221.775 346.655L17.2173 465.852C11.9813 468.9 7.63586 473.269 4.61475 478.522C1.59363 483.774 0.00245495 489.728 0 495.788V800.82C0 815.72 16.1241 824.947 28.9688 817.497L119.701 764.665C124.854 761.649 129.129 757.337 132.101 752.158C135.074 746.978 136.64 741.111 136.645 735.139V554.498L239.129 494.695L341.613 554.498V735.139C341.623 741.101 343.192 746.957 346.165 752.124C349.137 757.292 353.409 761.592 358.557 764.596L449.289 817.497C452.219 819.205 455.547 820.109 458.938 820.119C462.329 820.128 465.662 819.242 468.601 817.55C471.54 815.858 473.981 813.42 475.676 810.483C477.372 807.545 478.262 804.212 478.258 800.82V495.788C478.256 489.728 476.664 483.774 473.643 478.522C470.622 473.269 466.277 468.9 461.041 465.852L256.483 346.655C251.218 343.582 245.225 341.977 239.129 342.008ZM1332.29 494.558L1434.77 554.361V675.882L1332.29 735.686L1229.81 675.882V554.293L1332.29 494.49V494.558ZM1878.87 547.048L1820.32 581.222V649.432L1878.87 683.469L1937.42 649.432V581.222L1878.87 547.048ZM1052.58 820.026C1045.48 819.986 1038.49 821.775 1032.29 825.22L840.163 936.352C833.98 939.858 828.842 944.948 825.276 951.098C821.709 957.247 819.844 964.236 819.871 971.346V1193.2C819.871 1207.48 827.865 1220.95 840.163 1228.19L890.721 1257.04C914.976 1269 923.926 1269 934.926 1269C971.137 1269 991.771 1247.33 991.771 1209.06V989.868C991.789 989.12 991.657 988.377 991.384 987.681C991.111 986.985 990.701 986.351 990.179 985.816C989.657 985.281 989.033 984.856 988.344 984.566C987.655 984.276 986.915 984.126 986.168 984.127H961.845C960.323 984.127 958.863 984.731 957.787 985.808C956.711 986.885 956.106 988.345 956.106 989.868V1209.06C956.106 1225.66 938.547 1242.75 909.92 1228.47L857.312 1198.12C856.454 1197.58 855.742 1196.83 855.242 1195.95C854.741 1195.07 854.466 1194.08 854.442 1193.06V971.209C854.442 969.227 855.399 966.903 857.38 965.878L1049.5 855.088C1050.42 854.579 1051.46 854.312 1052.51 854.312C1053.56 854.312 1054.6 854.579 1055.52 855.088L1247.84 965.81C1249.82 966.903 1250.78 968.885 1250.78 971.209V1193.06C1250.78 1194.13 1250.51 1195.17 1249.99 1196.1C1249.48 1197.03 1248.74 1197.82 1247.84 1198.39L1055.52 1309.59C1054.6 1310.1 1053.56 1310.37 1052.51 1310.37C1051.46 1310.37 1050.42 1310.1 1049.5 1309.59L1000.45 1280.34C999.081 1279.66 997.031 1279.32 995.733 1280C986.742 1285.77 976.992 1290.25 966.764 1293.33C963.417 1294.35 958.907 1296.4 968.541 1301.73L1032.29 1339.67C1038.52 1343.06 1045.48 1344.89 1052.58 1345C1059.65 1345.07 1066.59 1343.12 1072.6 1339.39L1264.79 1228.19C1270.97 1224.69 1276.11 1219.6 1279.67 1213.45C1283.24 1207.3 1285.11 1200.31 1285.08 1193.2V971.346C1284.99 964.26 1283.08 957.317 1279.52 951.187C1275.97 945.057 1270.89 939.948 1264.79 936.352L1072.6 825.289C1066.5 821.827 1059.59 820.036 1052.58 820.094V820.026ZM1352.31 922.409C1347.46 922.418 1342.67 923.382 1338.2 925.245C1333.72 927.108 1329.66 929.834 1326.24 933.268C1319.33 940.202 1315.46 949.597 1315.48 959.385C1315.5 969.173 1319.41 978.554 1326.34 985.462C1333.27 992.371 1342.66 996.242 1352.45 996.224C1362.23 996.206 1371.61 992.3 1378.51 985.366C1385.42 978.432 1389.29 969.037 1389.27 959.248C1389.25 949.46 1385.35 940.08 1378.42 933.171C1371.49 926.262 1362.09 922.391 1352.31 922.409ZM1351.9 928.287C1369.25 928.287 1383.33 941.957 1383.33 959.248C1383.2 967.548 1379.85 975.473 1373.99 981.343C1368.12 987.212 1360.2 990.564 1351.9 990.688C1343.65 990.598 1335.77 987.237 1329.99 981.343C1324.22 975.448 1321.01 967.502 1321.09 959.248C1321.06 955.186 1321.84 951.159 1323.37 947.4C1324.91 943.64 1327.18 940.222 1330.04 937.344C1332.91 934.465 1336.31 932.183 1340.06 930.628C1343.82 929.074 1347.84 928.278 1351.9 928.287ZM1338.44 938.334V979.821H1346.3V963.281H1353.68C1356.68 963.281 1357.36 964.511 1358.05 966.835C1358.05 967.177 1359.28 977.975 1359.62 979.957H1368.16C1367.08 976.355 1366.41 972.64 1366.18 968.885C1365.22 963.554 1364.95 959.863 1359.28 959.522C1362.28 958.496 1367.27 956.925 1367.27 949.27C1367.27 938.266 1357.71 938.334 1352.72 938.334H1338.44ZM1346.3 944.964H1352.99C1355.04 944.964 1359 944.964 1359 950.568C1359 952.892 1357.98 956.72 1352.58 956.583H1346.3V944.964ZM1104.09 978.864C1049.23 978.864 1016.64 1002.31 1016.64 1040.85C1016.64 1083.09 1049.3 1094.37 1101.84 1099.63C1164.7 1105.99 1169.61 1115.01 1169.61 1127.31C1169.61 1148.91 1152.26 1157.86 1111.68 1157.86C1060.78 1157.86 1049.64 1145.29 1045.95 1120C1045.61 1117.27 1043.22 1115.28 1040.21 1115.28H1015.21C1014.46 1115.28 1013.72 1115.43 1013.03 1115.72C1012.34 1116.01 1011.72 1116.44 1011.19 1116.97C1010.67 1117.51 1010.26 1118.14 1009.99 1118.84C1009.72 1119.53 1009.58 1120.28 1009.6 1121.03C1009.6 1153.29 1027.23 1191.9 1111.34 1191.9C1173.03 1191.9 1207.94 1167.98 1207.94 1126.01C1207.94 1084.46 1179.93 1073.39 1120.76 1065.39C1060.91 1057.39 1054.97 1053.36 1054.97 1039.35C1054.97 1027.73 1059.89 1012.49 1104.16 1012.49C1143.65 1012.49 1158.41 1021.17 1164.42 1047.76C1165.1 1050.49 1166.95 1052.06 1169.61 1052.06H1194.55C1196.19 1052.06 1197.63 1051.38 1198.58 1050.42C1199.61 1049.12 1200.22 1047.83 1199.95 1046.19C1195.99 1000.26 1165.65 978.864 1104.09 978.864Z" fill="#0075ff"/>
</svg>
