<svg width="1157" height="1030" viewBox="0 0 1157 1030" fill="none" xmlns="http://www.w3.org/2000/svg">
<path d="M1156.46 515.058C1156.46 438.442 1060.52 365.826 913.41 320.821C947.381 170.915 932.299 51.607 865.802 13.3956C849.69 4.37143 831.454 -0.170958 812.991 0.240929V52.7634C823.832 52.7634 832.554 54.9318 839.878 58.9312C871.922 77.3382 885.848 147.304 875.006 237.363C872.404 259.529 868.163 282.851 862.959 306.654C813.696 294.783 763.697 286.203 713.294 280.971C683.267 239.545 650.509 200.17 615.236 163.109C692.092 91.6976 764.227 52.5707 813.28 52.5707V0C748.422 0 663.566 46.2102 577.748 126.343C491.977 46.7402 407.074 0.963715 342.264 0.963715V53.4862C391.076 53.4862 463.451 92.4203 540.307 163.35C507.3 198.044 474.293 237.363 442.924 280.971C392.417 286.145 342.329 294.807 293.018 306.895C287.806 284.334 283.706 261.531 280.73 238.568C269.648 148.46 283.332 78.4946 315.183 59.8949C322.218 55.6546 331.422 53.7272 342.264 53.7272V1.20464C322.507 1.20464 304.534 5.44499 289.018 14.3594C222.763 52.5707 207.922 171.59 242.085 321.062C95.4561 366.357 0 438.683 0 515.058C0 591.673 95.9379 664.289 243.049 709.247C209.078 859.201 224.16 978.509 290.657 1016.67C305.98 1025.63 323.905 1029.87 343.661 1029.87C408.519 1029.87 493.374 983.665 579.193 903.532C664.964 983.183 749.819 1028.91 814.677 1028.91C833.282 1029.3 851.657 1024.75 867.922 1015.71C934.178 977.545 949.019 858.526 914.855 709.054C1061 664.048 1156.46 591.432 1156.46 515.058ZM849.515 357.828C840.359 389.334 829.747 420.399 817.713 450.923C798.013 412.603 776.382 375.308 752.903 339.18C786.392 344.143 818.677 350.262 849.564 357.828H849.515ZM741.579 608.876C723.93 639.689 704.976 669.736 684.768 698.935C614.044 705.168 542.911 705.249 472.173 699.176C431.598 641.217 396.113 579.857 366.116 515.781C396.067 451.554 431.401 389.978 471.739 331.711C542.446 325.465 613.562 325.368 684.286 331.422C703.85 359.466 722.98 389.438 741.338 421.047C759.263 451.886 775.55 483.207 790.391 514.817C775.386 546.81 759.102 578.188 741.579 608.876V608.876ZM817.713 578.229C830.434 609.791 841.324 641.401 850.238 672.047C819.399 679.612 786.826 685.973 753.144 690.888C776.526 654.431 798.075 616.832 817.713 578.229V578.229ZM578.711 829.759C556.787 807.112 534.862 781.911 513.179 754.3C534.38 755.264 556.064 755.987 577.989 755.987C600.154 755.987 622.078 755.505 643.521 754.3C622.319 781.911 600.395 807.112 578.711 829.759ZM403.315 690.888C370.825 686.18 338.571 679.974 306.654 672.288C315.376 641.883 326.218 610.514 338.457 579.193C348.142 597.986 358.31 616.874 369.392 635.763C380.475 654.604 391.75 673.011 403.315 690.888ZM577.507 200.357C599.431 223.004 621.356 248.205 643.039 275.815C621.838 274.852 600.154 274.129 578.229 274.129C556.064 274.129 534.139 274.611 512.697 275.815C533.899 248.205 555.823 223.004 577.507 200.357ZM403.074 339.228C379.698 375.605 358.148 413.124 338.505 451.645C326.132 420.925 315.277 389.615 305.98 357.828C336.819 350.503 369.392 344.143 403.074 339.228ZM189.756 634.318C106.298 598.757 52.3298 552.065 52.3298 515.058C52.3298 478.051 106.298 431.118 189.756 395.798C209.994 387.076 232.159 379.27 255.047 371.994C268.491 418.156 286.175 466.246 308.052 515.54C287.398 561.903 269.93 609.622 255.77 658.362C233.386 651.431 211.354 643.407 189.756 634.318V634.318ZM316.581 971.136C284.537 952.826 270.611 882.764 281.453 792.753C284.055 770.587 288.296 747.217 293.5 723.413C339.662 734.737 390.112 743.459 443.165 749.144C473.193 790.569 505.952 829.944 541.223 867.007C464.366 938.418 392.232 977.545 343.179 977.545C333.925 977.646 324.788 975.461 316.581 971.185V971.136ZM875.728 791.548C886.811 881.607 873.126 951.621 841.276 970.221C834.241 974.461 825.037 976.34 814.195 976.34C765.383 976.34 693.008 937.455 616.152 866.477C651.276 829.57 683.814 790.286 713.535 748.903C764.042 743.73 814.13 735.068 863.441 722.98C868.886 746.783 873.078 769.623 875.728 791.548V791.548ZM966.462 634.318C946.224 643.039 924.059 650.845 901.171 658.121C886.762 609.132 869.053 561.174 848.166 514.576C869.85 465.571 887.245 417.723 900.448 371.753C922.904 378.707 945.014 386.731 966.703 395.798C1050.16 431.359 1104.13 478.051 1104.13 515.058C1103.89 552.065 1049.92 598.998 966.462 634.318V634.318Z" fill="#0075ff"/>
<path d="M577.979 622.796C606.554 622.796 633.959 611.444 654.165 591.238C674.371 571.033 685.722 543.628 685.722 515.052C685.722 486.477 674.371 459.072 654.165 438.866C633.959 418.66 606.554 407.309 577.979 407.309C549.403 407.309 521.998 418.66 501.793 438.866C481.587 459.072 470.235 486.477 470.235 515.052C470.235 543.628 481.587 571.033 501.793 591.238C521.998 611.444 549.403 622.796 577.979 622.796V622.796Z" fill="#0075ff"/>
</svg>
