<svg width="2135" height="2135" viewBox="0 0 2135 2135" fill="none" xmlns="http://www.w3.org/2000/svg">
<path d="M1711.56 266.875H423.442C381.918 266.875 342.094 283.37 312.732 312.732C283.37 342.094 266.875 381.918 266.875 423.442V1711.56C266.875 1753.08 283.37 1792.91 312.732 1822.27C342.094 1851.63 381.918 1868.13 423.442 1868.13H1711.56C1732.12 1868.13 1752.48 1864.08 1771.47 1856.21C1790.47 1848.34 1807.73 1836.81 1822.27 1822.27C1836.81 1807.73 1848.34 1790.47 1856.21 1771.47C1864.08 1752.48 1868.13 1732.12 1868.13 1711.56V423.442C1868.13 402.881 1864.08 382.522 1856.21 363.526C1848.34 344.531 1836.81 327.271 1822.27 312.732C1807.73 298.194 1790.47 286.661 1771.47 278.793C1752.48 270.925 1732.12 266.875 1711.56 266.875ZM1195.6 1156.46H995.444V1729.35H836.208V1156.46H636.052V1026.58H1195.6V1156.46ZM1711.56 1626.16C1698.68 1653.54 1677.93 1676.46 1651.96 1691.99C1624.63 1708.81 1594.5 1720.56 1563 1726.68C1527.88 1733.93 1492.11 1737.51 1456.25 1737.36C1419.56 1737.32 1382.94 1734.05 1346.83 1727.57C1316.13 1721.28 1286.28 1711.43 1257.87 1698.21V1546.1L1252.53 1540.76H1257.87V1546.99C1284.63 1567.86 1314.7 1584.1 1346.83 1595.02C1378.92 1607.24 1413.02 1613.28 1447.35 1612.81C1465.29 1613.13 1483.21 1611.34 1500.73 1607.48C1513.89 1604.4 1526.49 1599.3 1538.09 1592.35C1547.17 1586.82 1554.79 1579.19 1560.33 1570.11C1565.81 1559.77 1568.21 1548.08 1567.27 1536.42C1566.32 1524.76 1562.06 1513.61 1554.99 1504.29C1546.63 1492.56 1536.05 1482.59 1523.86 1474.93C1509.05 1464.52 1493.26 1455.58 1476.71 1448.24L1417.11 1423.33C1369.93 1403.9 1328.12 1373.39 1295.23 1334.38C1267.71 1301.2 1253.17 1259.15 1254.31 1216.06C1253.28 1183.32 1260.63 1150.86 1275.66 1121.76C1290.01 1096.4 1310.12 1074.77 1334.38 1058.6C1361.39 1040.63 1391.58 1027.95 1423.33 1021.24C1458.05 1013.25 1493.58 1009.37 1529.19 1009.68C1561.63 1009.22 1594.05 1011.31 1626.16 1015.9C1652.87 1020.08 1679.1 1026.94 1704.44 1036.36V1183.15C1692.73 1174.8 1680.22 1167.65 1667.08 1161.8C1652.93 1155.71 1638.37 1150.65 1623.49 1146.67C1609.23 1142.5 1594.65 1139.52 1579.9 1137.78C1566.29 1136.49 1552.59 1136.49 1538.98 1137.78C1522.22 1137.5 1505.49 1139.29 1489.16 1143.11C1475.77 1145.92 1462.88 1150.72 1450.91 1157.35C1441.57 1162.85 1433.65 1170.47 1427.78 1179.59C1422.46 1188.45 1419.69 1198.61 1419.78 1208.94C1419.56 1219.98 1422.66 1230.82 1428.67 1240.08C1435.98 1250.18 1445.01 1258.92 1455.36 1265.88C1467.9 1275.86 1481.65 1284.23 1496.28 1290.79L1552.32 1315.69C1578.09 1326.35 1603.06 1338.83 1627.05 1353.06C1648.14 1364.6 1667.34 1379.3 1683.98 1396.65C1700.29 1412.45 1713.03 1431.56 1721.34 1452.69C1729.87 1476.97 1734.09 1502.57 1733.8 1528.3C1733.16 1561.53 1725.59 1594.25 1711.56 1624.38V1626.16Z" fill="#0075ff"/>
</svg>
